<svg xmlns="http://www.w3.org/2000/svg" viewBox="0 0 100 100" width="100" height="100">
  <defs>
    <linearGradient id="body" x1="0.15" y1="0.1" x2="0.85" y2="0.95">
      <stop offset="0%" stop-color="#e2efff"/>
      <stop offset="32%" stop-color="#5f9dff"/>
      <stop offset="66%" stop-color="#1a6fff"/>
      <stop offset="100%" stop-color="#0e47a0"/>
    </linearGradient>
    <radialGradient id="sheen" cx="0.36" cy="0.3" r="0.5">
      <stop offset="0%" stop-color="#ffffff" stop-opacity="0.9"/>
      <stop offset="55%" stop-color="#ffffff" stop-opacity="0.12"/>
      <stop offset="100%" stop-color="#ffffff" stop-opacity="0"/>
    </radialGradient>
  </defs>
  <path d="M50 3 C53 33 67 47 97 50 C67 53 53 67 50 97 C47 67 33 53 3 50 C33 47 47 33 50 3Z" fill="url(#body)"/>
  <path d="M50 3 C53 33 67 47 97 50 C67 53 53 67 50 97 C47 67 33 53 3 50 C33 47 47 33 50 3Z" fill="url(#sheen)"/>
</svg>
